<?xml version="1.0" encoding="UTF-8" standalone="no"?>
<!-- Created with Inkscape (http://www.inkscape.org/) -->

<svg
   xmlns:dc="http://purl.org/dc/elements/1.1/"
   xmlns:cc="http://creativecommons.org/ns#"
   xmlns:rdf="http://www.w3.org/1999/02/22-rdf-syntax-ns#"
   xmlns:svg="http://www.w3.org/2000/svg"
   xmlns="http://www.w3.org/2000/svg"
   xmlns:xlink="http://www.w3.org/1999/xlink"
   xmlns:sodipodi="http://sodipodi.sourceforge.net/DTD/sodipodi-0.dtd"
   xmlns:inkscape="http://www.inkscape.org/namespaces/inkscape"
   width="744.09448819"
   height="1052.3622047"
   id="svg4649"
   version="1.1"
   inkscape:version="0.48.3.1 r9886"
   sodipodi:docname="phone_online.svg"
   inkscape:export-filename="/home/jylebleu/projects/xivo-client-qt/xivoclient/images/identity/phone_online.png"
   inkscape:export-xdpi="22.19986"
   inkscape:export-ydpi="22.19986">
  <defs
     id="defs4651">
    <linearGradient
       id="linearGradient4684">
      <stop
         style="stop-color:#d40000;stop-opacity:1;"
         offset="0"
         id="stop4686" />
      <stop
         style="stop-color:#ffffff;stop-opacity:0.57462686;"
         offset="1"
         id="stop4688" />
    </linearGradient>
    <linearGradient
       inkscape:collect="always"
       xlink:href="#linearGradient4684"
       id="linearGradient4690"
       x1="459.98923"
       y1="432.52002"
       x2="470.13474"
       y2="443.14334"
       gradientUnits="userSpaceOnUse"
       gradientTransform="translate(-21.109185,7.8015142)" />
  </defs>
  <sodipodi:namedview
     id="base"
     pagecolor="#ffffff"
     bordercolor="#666666"
     borderopacity="1.0"
     inkscape:pageopacity="0.0"
     inkscape:pageshadow="2"
     inkscape:zoom="1.4"
     inkscape:cx="137.58782"
     inkscape:cy="689.35734"
     inkscape:document-units="px"
     inkscape:current-layer="Phone"
     showgrid="false"
     inkscape:window-width="1600"
     inkscape:window-height="876"
     inkscape:window-x="0"
     inkscape:window-y="24"
     inkscape:window-maximized="1" />
  <metadata
     id="metadata4654">
    <rdf:RDF>
      <cc:Work
         rdf:about="">
        <dc:format>image/svg+xml</dc:format>
        <dc:type
           rdf:resource="http://purl.org/dc/dcmitype/StillImage" />
        <dc:title></dc:title>
      </cc:Work>
    </rdf:RDF>
  </metadata>
  <g
     inkscape:label="Layer 1"
     inkscape:groupmode="layer"
     id="layer1">
    <g
       transform="matrix(4.3650599,0,0,4.3031943,-1605.0234,-1517.4269)"
       style="fill:#0000ff"
       id="Phone">
      <path
         style="fill:#d40000;fill-opacity:1;fill-rule:evenodd"
         id="path5219"
         d="m 471.12881,434.33544 c 0,0 -5.597,-7.937 -10.949,-7.937 -4.048,0 -7.405,0.492 -14.099,5.968 -3.778,3.001 -4.146,3.464 -5.17,4.441 -11.02,10.518 -14.226,16.738 -14.383,22.09 -0.159,5.35 7.609,11.178 7.609,11.178 0.965,0.727 2.344,0.523 3.061,-0.447 l 6.127,-8.291 c 0.717,-0.971 0.607,-2.467 -0.244,-3.322 0,0 -0.386,-0.355 -3.248,-3.391 -2.86,-3.037 0.854,-6.539 0.854,-6.539 l 3.018,-3.113 c 0.193,-0.145 0.378,-0.291 0.531,-0.432 l 4.718,-4.311 c 0,0 3.611,-3.607 6.562,-0.658 2.95,2.951 3.293,3.348 3.293,3.348 0.83,0.877 2.321,1.031 3.313,0.342 l 8.47,-5.879 c 0.99,-0.688 1.232,-2.059 0.537,-3.047 z"
         clip-rule="evenodd"
         inkscape:connector-curvature="0" />
      <path
         style="fill:url(#linearGradient4690);fill-opacity:1;fill-rule:evenodd"
         id="path5219-4"
         d="m 470.14701,434.16945 c 0,0 -5.597,-7.937 -10.949,-7.937 -4.048,0 -7.405,0.492 -14.099,5.968 -3.778,3.001 -4.146,3.464 -5.17,4.441 -11.02,10.518 -14.226,16.738 -14.383,22.09 -0.159,5.35 7.609,11.178 7.609,11.178 0.965,0.727 2.344,0.523 3.061,-0.447 l 6.127,-8.291 c 0.717,-0.971 0.607,-2.467 -0.244,-3.322 0,0 -0.386,-0.355 -3.248,-3.391 -2.86,-3.037 0.854,-6.539 0.854,-6.539 l 3.018,-3.113 c 0.193,-0.145 0.378,-0.291 0.531,-0.432 l 4.718,-4.311 c 0,0 3.611,-3.607 6.562,-0.658 2.95,2.951 3.293,3.348 3.293,3.348 0.83,0.877 2.321,1.031 3.313,0.342 l 8.47,-5.879 c 0.99,-0.688 1.232,-2.059 0.537,-3.047 z"
         clip-rule="evenodd"
         inkscape:connector-curvature="0" />
    </g>
  </g>
</svg>
